<?xml version="1.0" encoding="UTF-8"?>
<svg version="1.1" xmlns="http://www.w3.org/2000/svg" width="512" height="512">
<path d="M0 0 C6.19978549 0.84513861 11.89087087 1.11885252 17.96484375 -0.4765625 C29.14843549 -3.24261099 40.29720331 -2.07645907 50.58984375 2.8359375 C59.87403829 7.09119333 67.87815158 7.58056743 77.83984375 5.5234375 C86.8687747 4.55378118 96.07348587 6.22261702 103.609375 11.44140625 C107.9212804 15.18368974 111.42709836 19.20948658 114.83984375 23.7734375 C119.70625805 30.12050523 125.96545524 33.35307384 133.83984375 34.5234375 C135.81454621 34.63247015 137.78956142 34.73925114 139.76586914 34.8137207 C153.19282094 35.33100196 165.23775539 37.70347415 175.19921875 47.25390625 C180.49977316 54.58633985 181.66764528 62.37046855 182.6171875 71.15039062 C183.52964346 78.45567074 185.8097429 84.02955722 190.33984375 89.8359375 C197.28226667 99.15678309 198.75375037 111.26015596 197.83984375 122.5234375 C196.38357399 129.09827917 194.36444462 134.7924184 190.83984375 140.5234375 C191.92930298 140.79063599 191.92930298 140.79063599 193.04077148 141.06323242 C240.77380191 152.86924532 240.77380191 152.86924532 252.6015625 172.16015625 C256.01272716 178.67042319 257.84405877 185.26629727 259.21484375 192.4609375 C260.96925757 201.1192068 264.33111417 208.62914897 269.96484375 215.4609375 C276.42057062 223.66650613 277.85972483 234.39835307 276.83984375 244.5234375 C275.67516038 252.634326 273.90532227 260.4184982 271.58984375 268.2734375 C269.69146139 275.11192849 269.89857158 280.57175031 270.83984375 287.5234375 C271.53895308 297.26727385 270.2856742 305.08894478 263.83984375 312.7109375 C254.19749109 322.66635356 243.59437183 327.72950945 229.8203125 327.98852539 C228.75425781 328.00004639 227.68820312 328.01156738 226.58984375 328.0234375 C207.18619575 328.572889 191.92617711 333.68060725 176.02734375 344.7734375 C167.66386949 350.58501063 159.86111148 353.22412169 149.71484375 354.4609375 C140.254024 355.68135196 133.52625174 358.78687287 127.45703125 366.2265625 C125.7149736 368.70078931 124.27105195 371.26772753 122.77734375 373.8984375 C119.38287833 379.46351346 115.26063599 382.40283072 109.97241211 385.97094727 C100.56549671 392.33938483 95.85769821 399.87550123 91.83984375 410.5234375 C91.35773438 411.67972656 90.875625 412.83601563 90.37890625 414.02734375 C88.99353462 419.94608089 91.74943766 425.48297707 93.7930603 430.97671509 C95.03013224 434.31960111 96.18435984 437.69071011 97.33984375 441.0625 C97.67848701 442.04664635 97.67848701 442.04664635 98.02397156 443.05067444 C104.42328229 461.85547188 105.01279929 483.37009949 96.34765625 501.67578125 C94.12817824 505.52398069 92.5706289 508.0362474 88.83984375 510.5234375 C86.86250305 510.81105042 86.86250305 510.81105042 84.5871582 510.86157227 C83.73229324 510.88401505 82.87742828 510.90645782 81.99665833 510.92958069 C81.07479233 510.9412175 80.15292633 510.95285431 79.203125 510.96484375 C78.24971725 510.97861557 77.29630951 510.99238739 76.31401062 511.00657654 C74.29411627 511.02985869 72.27414492 511.04711894 70.25415039 511.05883789 C67.18035298 511.08569279 64.11003563 511.16057221 61.03710938 511.23632812 C59.07163768 511.25299256 57.10613883 511.26675654 55.140625 511.27734375 C54.22888016 511.30719864 53.31713531 511.33705353 52.37776184 511.36781311 C46.14466077 511.32538212 42.98452497 509.75904933 38.49015808 505.45542908 C25.54145197 490.29662528 24.36106325 464.51038041 23.17993164 445.59448242 C22.15010956 429.39436405 19.23861699 416.66929316 10.765625 402.69921875 C7.04372455 396.56148028 4.06645223 390.95929421 2.65234375 383.8984375 C0.95933219 377.06867495 -3.61120229 374.37893292 -9.16015625 370.5234375 C-10.63921812 369.36185739 -12.0994841 368.17573701 -13.53515625 366.9609375 C-14.44394531 366.21650391 -14.44394531 366.21650391 -15.37109375 365.45703125 C-19.62522639 360.85922414 -21.80368763 355.18652091 -23.97265625 349.3984375 C-32.12611833 328.41149924 -45.84799999 307.49943411 -66.90722656 297.71142578 C-72.35448206 295.44013682 -77.56068391 294.91170267 -83.41015625 294.5234375 C-99.16567464 293.22611762 -113.56716891 290.16147094 -124.55859375 277.97265625 C-130.09422159 270.94408636 -132.04326083 262.55490045 -133.53515625 253.8984375 C-135.60627722 243.08258356 -140.10302246 238.12022441 -148.6953125 231.62109375 C-157.96965245 223.72835119 -164.15942422 210.49978272 -165.36523438 198.47900391 C-166.13057059 187.48092875 -164.6346338 177.87405467 -161.51171875 167.359375 C-160.29103629 163.20158453 -159.47420813 159.05033431 -158.73413086 154.78393555 C-156.50300912 141.99775173 -152.45288116 129.21711408 -142.16015625 120.5234375 C-138.80970236 118.19435922 -135.39552053 116.01751935 -131.921875 113.87890625 C-128.14743294 111.54645192 -124.51643828 109.0442695 -120.91015625 106.4609375 C-120.03254639 105.83433228 -120.03254639 105.83433228 -119.13720703 105.19506836 C-115.62952743 102.6625138 -112.28622495 99.99580092 -108.97265625 97.2109375 C-103.20527169 92.51123405 -96.73307707 88.5234375 -89.16015625 88.5234375 C-89.2065625 87.43546875 -89.25296875 86.3475 -89.30078125 85.2265625 C-89.65324985 73.39523157 -88.36810225 63.81466821 -81.49609375 53.83984375 C-80.06458444 51.35772381 -79.10131371 48.8190368 -78.13085938 46.12841797 C-74.00220683 34.78581224 -68.35198267 27.69173965 -57.34765625 22.3984375 C-55.95772933 21.75110317 -54.56710684 21.10526017 -53.17578125 20.4609375 C-45.96112232 17.083571 -39.3464911 12.58278867 -33.41015625 7.2734375 C-23.42681377 -1.57926137 -12.60754411 -1.83159724 0 0 Z " fill="#70C184" transform="translate(200.16015625,1.4765625)"/>
<path d="M0 0 C3.43526074 1.02993851 4.911541 2.83185643 7.09765625 5.62890625 C7.71175148 8.41502305 8.05402199 10.87403525 8.28515625 13.69140625 C11.3405901 38.65489988 17.8192897 63.02712806 34.09765625 82.62890625 C33.989375 80.74751953 33.989375 80.74751953 33.87890625 78.828125 C33.25363487 67.0122698 32.9421753 55.19613867 32.86547852 43.36489868 C32.85362797 41.79500582 32.83656533 40.22514339 32.81420898 38.65536499 C32.78420737 36.42499909 32.77428718 34.19538903 32.76953125 31.96484375 C32.76018555 30.6711084 32.75083984 29.37737305 32.74121094 28.04443359 C33.225473 23.40414168 34.84742246 20.87914004 38.09765625 17.62890625 C41.41015625 17.19140625 41.41015625 17.19140625 45.09765625 17.62890625 C48.2571993 20.17027784 49.81306511 21.77513284 51.09765625 25.62890625 C51.22853034 28.21399174 51.30752359 30.7767052 51.34375 33.36328125 C51.37531889 34.97095221 51.40714983 36.57861804 51.43920898 38.1862793 C51.4545871 39.03298187 51.46996521 39.87968445 51.48580933 40.75204468 C51.80980611 57.99921322 52.53238831 75.15612798 53.87548828 92.35546875 C54.07778084 95.33606072 54.18510625 98.29897108 54.25 101.28515625 C54.69998402 114.18673603 59.31891504 122.67343029 66.49707031 133.25 C68.9178424 136.84792606 71.16255511 140.54629243 73.41015625 144.25390625 C73.84972656 144.9703833 74.28929687 145.68686035 74.7421875 146.42504883 C80.78754619 156.30976687 86.51239017 166.38429578 92.26953125 176.43847656 C93.98907673 179.43941411 95.71430922 182.43699776 97.44140625 185.43359375 C103.17840306 195.40510409 108.77178704 205.43143315 114.09765625 215.62890625 C114.5359375 214.64535156 114.97421875 213.66179687 115.42578125 212.6484375 C121.69317704 198.83075666 128.69285469 185.1384323 137.5 172.75 C138.32516113 171.58005493 138.32516113 171.58005493 139.16699219 170.38647461 C140.20350023 168.94039889 141.26357762 167.51075902 142.35253906 166.10375977 C146.80391707 159.9210395 146.99263668 154.09522262 147.09765625 146.62890625 C147.12867432 145.47374512 147.15969238 144.31858398 147.19165039 143.12841797 C147.53481253 126.65890019 147.3853232 110.81252985 143.47265625 94.75390625 C140.32012081 81.73959327 140.32012081 81.73959327 143.59765625 76.00390625 C146.40639472 74.45910009 148.80642421 74.10793397 152 74 C155.35340712 75.00539767 157.2822961 76.72518211 159.09765625 79.62890625 C160.3962084 83.49918139 161.12514332 87.42879249 161.84765625 91.44140625 C162.05519531 92.49650391 162.26273438 93.55160156 162.4765625 94.63867188 C164.38538675 104.52145548 165.29321875 114.07120961 165.66015625 124.12890625 C165.70333984 125.2375 165.74652344 126.34609375 165.79101562 127.48828125 C165.89627839 130.20172131 165.99841471 132.91524042 166.09765625 135.62890625 C166.98066406 134.72269531 167.86367188 133.81648437 168.7734375 132.8828125 C184.97946949 116.37700525 184.97946949 116.37700525 194.78515625 110.31640625 C195.41744141 109.9100293 196.04972656 109.50365234 196.70117188 109.08496094 C197.91796312 108.31115188 199.1556413 107.56874807 200.41601562 106.86816406 C204.58546175 104.1939184 205.72928639 101.48211734 206.91796875 96.70703125 C208.50355779 88.3395636 209.13596397 79.87230634 209.73828125 71.38671875 C210.63011197 61.35906115 210.63011197 61.35906115 213.48046875 58.32421875 C217.01312051 56.03590403 218.96718925 55.89132286 223.09765625 56.62890625 C226.03515625 58.31640625 226.03515625 58.31640625 228.09765625 61.62890625 C229.8831536 73.97859627 227.32332028 88.63431521 224.09765625 100.62890625 C225.22042969 100.29117188 226.34320313 99.9534375 227.5 99.60546875 C243.32501649 94.87458821 243.32501649 94.87458821 250.09765625 93.62890625 C251.42796875 93.35240234 251.42796875 93.35240234 252.78515625 93.0703125 C259.90019226 91.75439385 266.9413306 91.36388151 274.16015625 91.25390625 C275.07700195 91.22796387 275.99384766 91.20202148 276.93847656 91.17529297 C283.43037706 91.15722646 283.43037706 91.15722646 286.65625 93.4375 C288.72211846 96.57829188 289.09765625 98.88225628 289.09765625 102.62890625 C287.01140286 106.05632254 285.92322515 107.35371662 282.09765625 108.62890625 C280.2197622 108.84420279 278.33717141 109.01953388 276.453125 109.171875 C261.9196697 110.4582212 248.20994023 112.41283154 234.3125 116.93505859 C232.42137782 117.52749348 230.49533305 118.00644479 228.56640625 118.4609375 C217.5676933 121.63030347 212.02651427 132.58543514 206.09765625 141.62890625 C205.3082666 142.81105713 205.3082666 142.81105713 204.50292969 144.01708984 C195.02048353 158.26484148 186.63867463 173.26757251 179.09765625 188.62890625 C179.70013184 188.36263428 180.30260742 188.0963623 180.92333984 187.82202148 C199.88828094 179.45894677 218.47657895 171.76517243 238.50048828 166.34179688 C241.08080917 165.63353056 243.65022823 164.89436352 246.21875 164.14453125 C247.03085937 163.91008301 247.84296875 163.67563477 248.6796875 163.43408203 C250.20070646 162.99486573 251.72035635 162.55086712 253.23828125 162.10107422 C257.29152127 160.94941209 260.8858507 160.22170427 265.09765625 160.62890625 C268.47265625 162.69140625 268.47265625 162.69140625 271.09765625 165.62890625 C271.78515625 169.12890625 271.78515625 169.12890625 271.09765625 172.62890625 C267.20533217 177.58277327 263.59433101 178.71764859 257.72265625 180.00390625 C256.00562569 180.42216583 254.28951299 180.84420699 252.57421875 181.26953125 C251.67606445 181.48931641 250.77791016 181.70910156 249.85253906 181.93554688 C225.24751915 188.12823179 201.43543844 197.56124024 179.10693359 209.59423828 C177.09765625 210.62890625 177.09765625 210.62890625 173.7421875 212 C166.6573189 215.29324237 164.3720645 220.3539698 161.66015625 227.31640625 C160.29250798 231.07296391 159.01300778 234.8546243 157.75762939 238.65002441 C156.77103298 241.60826254 155.75346101 244.5557174 154.73973083 247.50474548 C152.28824187 254.64863468 149.86907433 261.80361818 147.50390625 268.9765625 C147.27517319 269.6601181 147.04644012 270.34367371 146.81077576 271.04794312 C144.45075576 278.26629234 143.61203801 282.75524281 146.72265625 289.75390625 C147.00117432 290.41712891 147.27969238 291.08035156 147.56665039 291.76367188 C148.79623548 294.68126002 150.07356838 297.57509764 151.3671875 300.46484375 C162.43801872 325.71670627 168.24601394 351.96058054 159.09765625 378.62890625 C156.76065204 383.5659806 154.68658107 387.56962304 150.09765625 390.62890625 C148.12031555 390.91651917 148.12031555 390.91651917 145.8449707 390.96704102 C144.99010574 390.9894838 144.13524078 391.01192657 143.25447083 391.03504944 C142.33260483 391.04668625 141.41073883 391.05832306 140.4609375 391.0703125 C139.50752975 391.08408432 138.55412201 391.09785614 137.57182312 391.11204529 C135.55192877 391.13532744 133.53195742 391.15258769 131.51196289 391.16430664 C128.43816548 391.19116154 125.36784813 391.26604096 122.29492188 391.34179688 C120.32945018 391.35846131 118.36395133 391.37222529 116.3984375 391.3828125 C115.48669266 391.41266739 114.57494781 391.44252228 113.63557434 391.47328186 C107.40247327 391.43085087 104.24233747 389.86451808 99.74797058 385.56089783 C86.79926447 370.40209403 85.61887575 344.61584916 84.43774414 325.69995117 C83.40866641 309.51154231 80.51090021 296.77459245 72.02734375 282.8203125 C70.31330375 279.98555404 68.72669272 277.14163164 67.22265625 274.19140625 C66.85398437 273.47082031 66.4853125 272.75023437 66.10546875 272.0078125 C63.22639535 265.21186017 62.3487501 258.19454076 61.28515625 250.94140625 C59.54220814 239.62708417 57.19215215 228.64657288 54.09765625 217.62890625 C53.87883789 216.84837891 53.66001953 216.06785156 53.43457031 215.26367188 C52.02851671 210.31289389 50.52330711 205.39918983 48.97509766 200.49121094 C47.99129632 197.28194916 47.08408404 194.05452783 46.171875 190.82421875 C41.98748139 176.55283232 37.99203866 166.7364583 26.09765625 157.62890625 C25.19015625 156.85675781 24.28265625 156.08460938 23.34765625 155.2890625 C20.64621257 153.00167938 17.87937411 150.81773786 15.09765625 148.62890625 C13.97857187 147.71064019 12.86148707 146.78993348 11.74609375 145.8671875 C1.94912809 137.80875929 -8.35419522 130.66289867 -18.90234375 123.62890625 C-20.97916667 122.23958333 -23.05598958 120.85026042 -25.1328125 119.4609375 C-29.23251586 116.72178683 -33.33520413 113.98721089 -37.44140625 111.2578125 C-38.35825195 110.64695801 -39.27509766 110.03610352 -40.21972656 109.40673828 C-41.99975468 108.22707276 -43.78555121 107.05606286 -45.57714844 105.89404297 C-46.39344727 105.36182129 -47.20974609 104.82959961 -48.05078125 104.28125 C-48.77185059 103.81581787 -49.49291992 103.35038574 -50.23583984 102.87084961 C-51.90234375 101.62890625 -51.90234375 101.62890625 -52.90234375 99.62890625 C-53.47106413 92.57677355 -53.47106413 92.57677355 -51.40234375 89.12890625 C-47.92704444 87.04372667 -44.812647 87.02778686 -40.90234375 87.62890625 C-37.89950067 88.8521264 -35.28933461 90.53229481 -32.58984375 92.31640625 C-31.81640625 92.80898926 -31.04296875 93.30157227 -30.24609375 93.80908203 C-27.78171157 95.39198129 -25.33973136 97.00478799 -22.90234375 98.62890625 C-22.1129541 99.15274902 -21.32356445 99.6765918 -20.51025391 100.21630859 C-4.83504459 110.67183148 10.69934449 121.45777282 25.09765625 133.62890625 C19.2642121 118.73398729 13.16010291 103.99860917 6.640625 89.390625 C4.81667462 85.28267321 3.02642399 81.16221087 1.2734375 77.0234375 C0.85618408 76.03835205 0.43893066 75.0532666 0.0090332 74.03833008 C-0.90234375 71.62890625 -0.90234375 71.62890625 -0.90234375 69.62890625 C-1.47210938 69.37367188 -2.041875 69.1184375 -2.62890625 68.85546875 C-5.15765186 67.4911627 -7.09571647 65.8728088 -9.27734375 64.00390625 C-19.12079938 56.01606523 -30.78668197 49.98120054 -42.6640625 45.61328125 C-51.40430276 42.39789359 -51.40430276 42.39789359 -53.90234375 37.62890625 C-54.46484375 34.62890625 -54.46484375 34.62890625 -53.90234375 31.62890625 C-51.90234375 28.75390625 -51.90234375 28.75390625 -48.90234375 26.62890625 C-42.3879088 26.00413824 -37.81096795 27.43019421 -31.90234375 30.06640625 C-31.08580322 30.41968994 -30.2692627 30.77297363 -29.42797852 31.13696289 C-21.26840068 34.75106576 -13.58085787 39.10105986 -5.90234375 43.62890625 C-4.91234375 44.12390625 -4.91234375 44.12390625 -3.90234375 44.62890625 C-4.30066406 43.21351563 -4.30066406 43.21351563 -4.70703125 41.76953125 C-11.79712076 16.19025748 -11.79712076 16.19025748 -9.90234375 4.62890625 C-6.97680139 0.77747795 -4.84710107 0.16381853 0 0 Z " fill="#4C8056" transform="translate(138.90234375,121.37109375)"/>
<path d="M0 0 C6.19978549 0.84513861 11.89087087 1.11885252 17.96484375 -0.4765625 C29.14843549 -3.24261099 40.29720331 -2.07645907 50.58984375 2.8359375 C59.87403829 7.09119333 67.87815158 7.58056743 77.83984375 5.5234375 C86.8687747 4.55378118 96.07348587 6.22261702 103.609375 11.44140625 C107.9212804 15.18368974 111.42709836 19.20948658 114.83984375 23.7734375 C119.70625805 30.12050523 125.96545524 33.35307384 133.83984375 34.5234375 C135.81454621 34.63247015 137.78956142 34.73925114 139.76586914 34.8137207 C153.19282094 35.33100196 165.23775539 37.70347415 175.19921875 47.25390625 C180.49977316 54.58633985 181.66764528 62.37046855 182.6171875 71.15039062 C183.52964346 78.45567074 185.8097429 84.02955722 190.33984375 89.8359375 C197.28226667 99.15678309 198.75375037 111.26015596 197.83984375 122.5234375 C196.39481108 129.04754538 194.45806271 134.88357757 190.83984375 140.5234375 C190.26443848 140.45560059 189.6890332 140.38776367 189.09619141 140.31787109 C172.03369676 138.44379935 155.55268575 138.62318755 138.86450195 142.74243164 C130.0722069 144.78693059 121.64678532 144.86916589 112.65405273 144.42578125 C105.70919421 144.16253146 100.8897815 145.06436147 94.83984375 148.5234375 C94.14826172 148.91789063 93.45667969 149.31234375 92.74414062 149.71875 C87.0410234 153.17811697 83.99542209 158.50665572 80.47851562 163.98364258 C72.86735459 175.79643341 62.52094019 182.04500291 49.859375 187.87109375 C45.88414604 190.04641309 42.40273833 192.73603948 38.83984375 195.5234375 C35.03178902 190.97072341 31.29908689 186.36866723 27.61474609 181.71533203 C26.02668494 179.75417481 24.38226535 177.87105171 22.703125 175.98828125 C12.96289584 164.38702788 12.2602967 150.50600617 10.35498047 136.05175781 C8.07419841 120.43002213 1.86338349 103.33862347 -11.16015625 93.5234375 C-14.39270849 91.57085548 -17.66033939 89.93872394 -21.16015625 88.5234375 C-21.99353516 88.17812988 -22.82691406 87.83282227 -23.68554688 87.47705078 C-28.26457596 86.22032737 -32.51979003 86.23712756 -37.24609375 86.2578125 C-38.22067535 86.25589905 -39.19525696 86.2539856 -40.19937134 86.25201416 C-42.26198586 86.25065581 -44.32460903 86.25432777 -46.38720703 86.26269531 C-49.49011344 86.27328379 -52.59242539 86.26284839 -55.6953125 86.25 C-67.01407722 86.24318926 -77.97326062 86.72682247 -89.16015625 88.5234375 C-89.61438935 75.53485015 -89.13294461 64.92484849 -81.49609375 53.83984375 C-80.06458444 51.35772381 -79.10131371 48.8190368 -78.13085938 46.12841797 C-74.00220683 34.78581224 -68.35198267 27.69173965 -57.34765625 22.3984375 C-55.95772933 21.75110317 -54.56710684 21.10526017 -53.17578125 20.4609375 C-45.96112232 17.083571 -39.3464911 12.58278867 -33.41015625 7.2734375 C-23.42681377 -1.57926137 -12.60754411 -1.83159724 0 0 Z " fill="#4B7F55" transform="translate(200.16015625,1.4765625)"/>
<path d="M0 0 C3.01241403 0.00098405 6.02236666 -0.04109958 9.03442383 -0.08496094 C21.02913103 -0.16031533 31.89475777 0.21059838 41.8684082 7.78222656 C42.60961914 8.51441406 43.35083008 9.24660156 44.11450195 10.00097656 C44.87891602 10.73316406 45.64333008 11.46535156 46.4309082 12.21972656 C50.41143261 16.50080622 53.39682417 20.71863841 56.05200195 25.93847656 C56.61918945 27.0303125 57.18637695 28.12214844 57.77075195 29.24707031 C62.33604238 39.3857392 64.07500257 50.12250623 65.47418213 61.06375122 C67.08745507 73.22304913 68.89118062 82.29047462 77.55200195 91.50097656 C79.42632574 93.80252586 81.23445015 96.15448074 83.05200195 98.50097656 C83.98505134 99.68239627 84.91864026 100.86339008 85.8527832 102.04394531 C97.45581353 116.83956202 105.40830899 132.40063277 110.55200195 150.50097656 C110.87168945 151.58507812 111.19137695 152.66917969 111.52075195 153.78613281 C113.63321138 162.30442985 113.82900592 170.63173277 113.86450195 179.37597656 C113.87006104 180.50994873 113.87562012 181.6439209 113.88134766 182.81225586 C113.74805066 198.82270559 111.03090232 214.01671232 107.42700195 229.56347656 C107.04989209 231.22019394 106.67358639 232.87709458 106.2980957 234.53417969 C105.39193568 238.52527369 104.47511186 242.51377043 103.55200195 246.50097656 C101.21499506 243.67294798 99.10954805 240.98330457 97.46606445 237.70019531 C97.1002124 236.98307373 96.73436035 236.26595215 96.35742188 235.52709961 C95.9678833 234.755354 95.57834473 233.9836084 95.17700195 233.18847656 C89.61222136 222.39965928 83.5049118 211.95580328 77.32788086 201.50878906 C75.60695653 198.59405333 73.89637196 195.67350402 72.1887207 192.75097656 C66.46330345 182.97417096 60.62054415 173.29251358 54.50854492 163.75170898 C54.04722168 163.03088135 53.58589844 162.31005371 53.1105957 161.56738281 C52.71155029 160.94806885 52.31250488 160.32875488 51.90136719 159.69067383 C51.45607666 158.96807373 51.01078613 158.24547363 50.55200195 157.50097656 C49.86009766 156.41727783 49.16819336 155.3335791 48.45532227 154.21704102 C46.36351317 150.51864087 45.86749953 147.23376317 45.5402832 142.97753906 C45.48172653 142.27309662 45.42316986 141.56865417 45.36283875 140.84286499 C45.18082327 138.60482308 45.02241262 136.36583384 44.86450195 134.12597656 C44.74818146 132.66361544 44.63035271 131.20137347 44.51098633 129.73925781 C44.15797539 125.32863474 43.84952795 120.91564742 43.55200195 116.50097656 C43.5038736 115.80633301 43.45574524 115.11168945 43.40615845 114.39599609 C42.54455164 101.80724103 42.26272897 89.22177533 42.07519531 76.60693359 C42.03553406 74.0453394 41.98410535 71.48419549 41.9309082 68.92285156 C41.91828697 67.76194 41.91828697 67.76194 41.90541077 66.57757568 C41.81159852 62.48753201 41.55500784 59.11285795 39.55200195 55.50097656 C35.85714092 53.03773587 33.91907104 53.11105968 29.55200195 53.50097656 C26.93607043 55.33212863 26.5821074 56.41066023 25.55200195 59.50097656 C25.45546207 61.85618541 25.42124813 64.21410336 25.41918945 66.57128906 C25.41787018 67.27713638 25.4165509 67.9829837 25.41519165 68.71022034 C25.4132714 71.01551667 25.41962057 73.32069252 25.42700195 75.62597656 C25.42788818 76.40687653 25.42877441 77.18777649 25.4296875 77.99234009 C25.44817089 91.84688749 25.8218052 105.66413656 26.55200195 119.50097656 C25.21789769 117.83492693 23.88479523 116.16807513 22.55200195 114.50097656 C22.125 113.99937012 21.69799805 113.49776367 21.25805664 112.98095703 C6.46125216 95.2680325 0.53588905 68.77100077 -1.54003906 46.13427734 C-1.87253201 42.79865918 -2.256767 40.76129754 -4.2644043 38.02832031 C-7.87421773 35.5033882 -10.11451661 36.01947863 -14.44799805 36.50097656 C-16.26886195 37.61841854 -16.26886195 37.61841854 -17.44799805 39.50097656 C-19.79711851 52.49521048 -15.20064298 68.09358296 -11.44799805 80.50097656 C-15.10642187 79.18143056 -18.36579515 77.45002017 -21.71362305 75.47924805 C-28.11808511 71.71678417 -34.60642809 68.33678949 -41.44799805 65.43847656 C-42.12894531 65.13981689 -42.80989258 64.84115723 -43.51147461 64.53344727 C-48.35174987 62.55371084 -52.21862433 62.09313011 -57.44799805 62.50097656 C-60.07516382 63.96095643 -60.07516382 63.96095643 -61.44799805 66.50097656 C-62.19815 69.45789365 -62.19815 69.45789365 -61.44799805 72.50097656 C-57.92332127 76.71227868 -54.70152002 78.4881639 -49.57299805 80.31347656 C-36.5330183 85.21656051 -25.31163013 91.77068612 -14.44799805 100.50097656 C-13.6387085 101.06341064 -12.82941895 101.62584473 -11.99560547 102.20532227 C-9.00219538 104.90269027 -7.62454132 107.66951615 -6.1003418 111.30957031 C-5.80656143 111.9807338 -5.51278107 112.65189728 -5.21009827 113.34339905 C-4.2547759 115.53607788 -3.319685 117.73671961 -2.38549805 119.93847656 C-1.72946142 121.45968297 -1.07255091 122.9805128 -0.41479492 124.50097656 C1.2643049 128.39477104 2.92415453 132.29644218 4.57720947 136.20135498 C5.5255419 138.43855497 6.47906362 140.6734664 7.43432617 142.90771484 C8.88353619 146.300084 10.32264927 149.69652326 11.75167847 153.09744263 C12.28431122 154.36428602 12.81891266 155.63030353 13.35549927 156.89547729 C14.09576539 158.645991 14.82421457 160.40148806 15.55200195 162.15722656 C16.17075195 163.63932617 16.17075195 163.63932617 16.80200195 165.15136719 C17.55200195 167.50097656 17.55200195 167.50097656 16.55200195 169.50097656 C15.88297852 168.91832031 15.21395508 168.33566406 14.5246582 167.73535156 C1.67260395 156.76366498 -12.35672065 147.50830276 -26.38549805 138.12597656 C-26.95954376 137.74143311 -27.53358948 137.35688965 -28.12503052 136.96069336 C-33.6978673 133.23237653 -39.29307975 129.53846776 -44.98706055 125.99707031 C-46.12522217 125.28828735 -46.12522217 125.28828735 -47.28637695 124.56518555 C-50.9288475 122.77192497 -53.45850173 122.87105609 -57.44799805 123.50097656 C-59.61466471 124.3343099 -59.61466471 124.3343099 -60.44799805 126.50097656 C-60.97226851 130.57578265 -60.97226851 130.57578265 -60.44799805 134.50097656 C-57.43927095 138.25076944 -53.45648111 140.49818559 -49.38549805 142.93847656 C-29.60743834 155.0616185 -10.12019029 168.45538721 7.55200195 183.50097656 C8.69366431 184.45702194 9.83560874 185.41273055 10.9777832 186.36816406 C12.19061315 187.39090188 13.4028583 188.41433362 14.61450195 189.43847656 C15.42709473 190.11922241 15.42709473 190.11922241 16.25610352 190.8137207 C18.05106096 192.34498045 19.80012478 193.92060567 21.55200195 195.50097656 C22.36950928 196.19779541 23.1870166 196.89461426 24.02929688 197.61254883 C31.21117635 204.12959983 34.04471968 210.35407744 36.73950195 219.56347656 C37.15152816 220.89296149 37.5658755 222.22172906 37.98242188 223.54980469 C39.02013235 226.89072253 40.01718562 230.24200918 40.9967041 233.60040283 C41.52088373 235.39447072 42.05422307 237.18585505 42.58813477 238.97705078 C45.87133158 250.02608045 48.80814928 261.15094934 51.42700195 272.37597656 C51.73214722 273.66761719 51.73214722 273.66761719 52.04345703 274.98535156 C53.42341523 281.1296648 54.11089623 287.22232261 54.55200195 293.50097656 C52.64642235 292.07251345 50.74226206 290.64230353 48.84106445 289.20800781 C47.39003194 288.12592384 45.92761955 287.05880241 44.45043945 286.01269531 C36.11489358 280.04264218 32.34378888 274.57595489 28.93774414 264.90112305 C21.56006314 244.23840735 7.53367552 223.63292686 -12.44799805 213.50097656 C-18.47440248 210.69999541 -24.11100878 209.93819523 -30.69799805 209.50097656 C-46.45351644 208.20365668 -60.85501071 205.13901001 -71.84643555 192.95019531 C-77.38206338 185.92162542 -79.33110263 177.53243951 -80.82299805 168.87597656 C-82.89411901 158.06012263 -87.39086425 153.09776348 -95.9831543 146.59863281 C-105.25749425 138.70589025 -111.44726602 125.47732178 -112.65307617 113.45654297 C-113.41841239 102.45846782 -111.9224756 92.85159373 -108.79956055 82.33691406 C-107.57887809 78.17912359 -106.76204993 74.02787337 -106.02197266 69.76147461 C-103.79085091 56.97529079 -99.74072296 44.19465314 -89.44799805 35.50097656 C-86.09754415 33.17189828 -82.68336233 30.99505841 -79.2097168 28.85644531 C-75.43527474 26.52399098 -71.80428007 24.02180856 -68.19799805 21.43847656 C-67.6129248 21.02073975 -67.02785156 20.60300293 -66.42504883 20.17260742 C-62.91736923 17.64005286 -59.57406674 14.97333998 -56.26049805 12.18847656 C-40.50325216 -0.39702096 -19.30980516 -0.044394 0 0 Z " fill="#4FB96E" transform="translate(147.447998046875,86.4990234375)"/>
<path d="M0 0 C2.26275631 1.61625451 2.95297288 2.56909059 3.75 5.25 C3.4241573 11.44101124 3.4241573 11.44101124 1.44140625 13.8203125 C-0.33010824 15.31771274 -2.10802066 16.42059147 -4.125 17.5625 C-13.60316185 23.39521498 -17.00213461 32.4642146 -19.5 42.75 C-19.67539307 43.46196533 -19.85078613 44.17393066 -20.03149414 44.9074707 C-21.92503046 53.21401252 -21.50604724 59.70532158 -18.75 67.75 C-18.51152344 68.47703125 -18.27304688 69.2040625 -18.02734375 69.953125 C-17.44539824 71.72223935 -16.84919543 73.48665346 -16.25 75.25 C-15.59 75.25 -14.93 75.25 -14.25 75.25 C-12.56065562 73.3457032 -10.96337003 71.42330898 -9.375 69.4375 C-0.08102009 58.18414058 10.61752382 49.28992581 22.75 41.25 C23.83023438 40.53070313 24.91046875 39.81140625 26.0234375 39.0703125 C31.76559218 35.46880994 35.92132827 32.90865377 42.75 34.25 C45.25 35.75 45.25 35.75 46.75 38.25 C47.40544212 42.83809485 47.61488302 44.98356416 45 48.8125 C42.34453119 51.06630126 39.33733133 52.66671742 36.3125 54.375 C20.33713651 63.45903022 5.47279908 76.58240376 -4.25 92.25 C-4.68054688 92.87390625 -5.11109375 93.4978125 -5.5546875 94.140625 C-8.78220887 99.08207151 -8.81988613 103.75251832 -7.90112305 109.39111328 C-7.43288547 111.60564878 -6.91483633 113.80185693 -6.375 116 C-6.0054913 117.58149071 -5.63830764 119.16352643 -5.2734375 120.74609375 C-5.00805176 121.89440674 -5.00805176 121.89440674 -4.73730469 123.06591797 C-3.69181639 127.75175879 -2.82061163 132.48238968 -2.25 137.25 C-2.07984375 138.54164063 -2.07984375 138.54164063 -1.90625 139.859375 C-2.25 142.25 -2.25 142.25 -4.234375 144.05859375 C-5.14703125 144.59613281 -6.0596875 145.13367188 -7 145.6875 C-8.50240234 146.58082031 -8.50240234 146.58082031 -10.03515625 147.4921875 C-14.10556396 149.71780532 -18.25817954 151.74205947 -22.43359375 153.76171875 C-26.38825762 155.85149259 -29.79090596 158.43852744 -33.25 161.25 C-39.57418655 156.26218489 -44.42674999 150.82876861 -45.88977051 142.69171143 C-46.66737716 133.04231983 -46.31233826 123.3696996 -45.95739746 113.70605469 C-45.82155268 109.75991476 -45.74031658 105.81283959 -45.66015625 101.86523438 C-45.64439734 101.09385163 -45.62863842 100.32246889 -45.61240196 99.52771091 C-45.58141421 97.98290269 -45.55100652 96.43808271 -45.52119064 94.89325142 C-45.49150028 93.36602987 -45.46060371 91.83883128 -45.42848587 90.31165886 C-45.23036506 80.71093255 -45.17919024 71.15992363 -45.8125 61.5703125 C-45.85678131 60.64118546 -45.90106262 59.71205841 -45.94668579 58.754776 C-46.84530493 48.09323187 -53.94635293 41.42078544 -61.25 34.25 C-63.00745864 32.43158084 -64.7461304 30.59806508 -66.47314453 28.75073242 C-67.49919455 27.6608498 -68.54225227 26.58662038 -69.60498047 25.5324707 C-72.81641604 22.23955756 -74.03856818 19.85665076 -74.25 15.25 C-73.20102418 11.40375534 -72.64462539 10.51308359 -69.25 8.25 C-65.69616676 7.62285296 -63.33478738 7.52965003 -60.26171875 9.5703125 C-58.16585601 11.38537033 -56.20251101 13.28196206 -54.25 15.25 C-53.67378906 15.79011719 -53.09757812 16.33023438 -52.50390625 16.88671875 C-47.94966876 21.23059885 -44.07009964 26.06247308 -40.16796875 30.9921875 C-38.45034257 33.31322011 -38.45034257 33.31322011 -36.25 34.25 C-35.97027344 33.43917969 -35.69054687 32.62835938 -35.40234375 31.79296875 C-30.66406723 18.70557476 -24.64298416 7.67950845 -12.125 0.8125 C-7.90466263 -1.11561492 -4.46089107 -1.48696369 0 0 Z " fill="#396041" transform="translate(272.25,35.75)"/>
</svg>
